# xmcd
#
# Track frame offsets: 
#        150
#        10495
#        23977
#        38615
#        52567
#        72330
#        83202
#        95190
#        109557
#        125305
#
# Disc length: 1880 seconds
#
# Revision: 2
# Processed by: cddbd v1.4PL0 Copyright (c) Steve Scherf et al.
# Submitted via: ExactAudioCopy v0.90b3
#
DISCID=7607560a
DTITLE=Lacy J. Dalton - Blue Eyed Blues
DYEAR=1900
DGENRE=Country
TTITLE0=Have I Got A Heart For You
TTITLE1=It's A Dirty Job (With Bobby Bare)
TTITLE2=Blue-Eyed Blues
TTITLE3=That's Good - That's Bad (With George Jones)
TTITLE4=Gotta Serve Somebody (With David Allan Coe)
TTITLE5=I'll Love Them Whatever They Are
TTITLE6=HillBilly Girl With The Blues
TTITLE7=16Th Avenue
TTITLE8=My Old Yellow Car
TTITLE9=Love Gone Cold (With Earl Scruggs)
EXTD=
EXTT0=
EXTT1=
EXTT2=
EXTT3=
EXTT4=
EXTT5=
EXTT6=
EXTT7=
EXTT8=
EXTT9=
PLAYORDER=
